<svg xmlns="http://www.w3.org/2000/svg" width="100" height="100">
    <path fill="#889196" fill-rule="evenodd" d="M49.999 100C22.429 100 0 77.57 0 50S22.429 0 49.999 0c27.57 0 50 22.43 50 50 .001 27.57-22.429 50-50 50zm0-94.539C25.44 5.461 5.461 25.441 5.461 50S25.441 94.539 50 94.539 94.539 74.559 94.539 50 74.559 5.461 49.999 5.461zm25.478 34.53l3.973 3.973a2.311 2.311 0 0 1-1.632 3.946h-.002-.001-.002a2.296 2.296 0 0 1-1.632-.677l-3.973-3.973-3.972 3.973a2.297 2.297 0 0 1-1.632.677h-.005a2.311 2.311 0 0 1-1.632-3.946l3.973-3.973-3.973-3.974a2.31 2.31 0 0 1 0-3.27 2.315 2.315 0 0 1 3.269 0l3.973 3.974 3.973-3.974a2.315 2.315 0 0 1 3.269 0 2.314 2.314 0 0 1 0 3.27l-3.974 3.974zm-6.278 26.712a2.312 2.312 0 0 1 3.193 3.344l-4.164 3.976a2.313 2.313 0 0 1-3.193 0l-6.725-6.428-6.723 6.428a2.314 2.314 0 0 1-3.195-.001l-6.716-6.424-6.715 6.424c-.414.396-.977.64-1.597.64h-.002a2.306 2.306 0 0 1-1.596-.639l-4.159-3.976a2.312 2.312 0 0 1 3.195-3.343l2.56 2.449 6.72-6.425a2.308 2.308 0 0 1 3.193 0l6.715 6.424 6.721-6.425a2.311 2.311 0 0 1 3.194 0l6.727 6.427 2.567-2.451zM35.03 47.233a2.298 2.298 0 0 1-1.634.677h-.001-.001-.002a2.293 2.293 0 0 1-1.631-.677l-3.973-3.973-3.973 3.973a2.3 2.3 0 0 1-1.634.677h-.003a2.313 2.313 0 0 1-1.633-3.946l3.973-3.974-3.972-3.973a2.31 2.31 0 0 1 0-3.27 2.315 2.315 0 0 1 3.269 0l3.972 3.973 3.973-3.973a2.316 2.316 0 0 1 3.27 0 2.314 2.314 0 0 1 0 3.27l-3.973 3.974 3.973 3.973a2.311 2.311 0 0 1 0 3.269z"/>
</svg>
